<svg xmlns="http://www.w3.org/2000/svg" xml:space="preserve"
     style="shape-rendering:geometricPrecision;text-rendering:geometricPrecision;image-rendering:optimizeQuality;"
     viewBox="0 0 3 3" fill-rule="evenodd" clip-rule="evenodd">
<!--     viewBox="0 0 2.45911 1.419675" fill-rule="evenodd" clip-rule="evenodd">-->
    <g>
        <path stroke="fff" fill="#999"
              d="M0.333591 1.10808c0.326569,-0.0531941 0.508427,-0.0994072 0.805585,-0.195117 -0.0568808,-0.0169465 -0.110529,-0.0486916 -0.153107,-0.0912179 -0.0613731,-0.000423405 -0.134849,-0.00621682 -0.198463,-0.025332 -0.0383543,0.0793729 -0.0985088,0.135572 -0.169135,0.175847 0.0830906,-0.0311254 0.177675,-0.0758514 0.306638,-0.14404 0.00430634,-0.00227193 0.00414111,-0.00265403 0.00774521,-0.000640271l2.06539e-005 9.29425e-005c-0.00382097,0.00384162 -0.000681579,0.00155937 -0.00405849,0.00527707 -0.223847,0.245606 -0.623273,0.26816 -0.928816,0.251513 0.155896,-0.0206126 0.265423,-0.0316728 0.358851,-0.0461821 0.21258,-0.0810252 0.195272,-0.0926844 0.411302,-0.233936l0.0162959 -0.00828221c-0.106987,-0.0324679 -0.185575,-0.102825 -0.13046,-0.249034 0.00837515,-0.0221926 0.0181961,-0.0340893 0.0364645,-0.0462337 -0.0844125,-0.16773 -0.0672697,-0.40241 0.255706,-0.409267 0.0106058,-0.000227193 0.0645744,0.00931491 0.0904847,0.0230084 0.00513249,-0.00382097 0.0110292,-0.00785881 0.018289,-0.0127125 0.184801,-0.191296 0.56792,-0.0961026 0.728566,0.144712 0.032881,0.0492905 0.112657,0.245265 0.102722,0.347956 0.0391082,-0.0102547 0.0874176,-0.00707396 0.144226,0.0173389 0.113782,0.0488981 0.101803,0.182002 0.0664436,0.277795l0.00348018 -0.00903608c-0.0196522,0.0660099 -0.0519136,0.110684 -0.0934795,0.147861 0.0282029,0.00147675 0.0704401,0.0118347 0.14373,0.0362682 0.133992,0.0446744 0.175124,0.00431666 0.306452,-0.0305058l4.13078e-005 0.000123923c-0.116498,0.0654935 -0.187011,0.0956998 -0.316893,0.0592767 -0.250976,-0.0703678 -0.162773,0.0348535 -0.292397,0.0419481 -0.139548,0.00763161 0.37272,-0.249974 0.203895,-0.45862 -0.142161,-0.175703 -0.399746,0.118946 -0.160739,0.190408 0.0311357,-0.0318277 0.0564368,-0.0658549 0.0731045,-0.10172 0.0214387,0.178109 -0.309767,0.338228 -0.507755,0.345395 0.130161,-0.0408947 0.315571,-0.125421 0.429023,-0.238016 -0.0526778,-0.000660925 -0.0869013,-0.0257451 -0.104034,-0.0607844 -0.0942024,0.233131 -0.355154,0.317161 -0.584774,0.313567 0.318462,-0.073342 0.355443,-0.107214 0.578836,-0.328108 -0.0238759,-0.0709358 0.0128467,-0.170591 0.100512,-0.200136 -0.000340789,-0.00811698 -0.00142512,-0.0168226 -0.00304645,-0.0273664 -0.105521,-0.685926 -0.843453,-0.631008 -0.899126,-0.230508 -0.0717,0.515883 0.762532,0.504792 0.585693,0.129934l-0.00276762 -0.00150773c-0.0254663,-0.00722886 -0.00540099,-0.0153872 -0.0877171,-0.0300101 0.0515418,0.0265609 0.0254559,0.190976 -0.137689,0.149927 -0.204866,-0.0515521 0.0876758,-0.429116 0.298841,-0.215276 0.327457,0.331578 -0.240948,0.627414 -0.482279,0.69646 -0.227141,0.0417415 -0.113338,0.0268914 -0.343877,0.0447776 0.236941,-0.0469463 1.05324,-0.225933 0.831361,-0.651641 -0.126175,-0.242105 -0.4583,-0.0162133 -0.299998,0.0995518 0.136223,0.0468637 0.184419,-0.100843 0.112192,-0.126887 0.00803437,-0.00127021 0.0151083,-8.26156e-005 0.0211393,0.00294318 0.130357,-0.00337691 0.151145,0.0691906 0.11719,0.201727 -0.01516,0.0620237 -0.0554144,0.102629 -0.109094,0.124677 -0.0689634,0.144939 -0.202088,0.183055 -0.323967,0.152859 -0.219592,0.164364 -0.559431,0.200394 -0.821158,0.190873zm0.359574 -0.605861c-0.0613317,0.236941 0.0795691,0.26217 0.287172,0.31366 -0.0392527,-0.0410909 -0.0682818,-0.0916413 -0.0804573,-0.148264 -0.0764917,0.00380032 -0.158106,-0.0696862 -0.206715,-0.165396zm0.20467 0.154915c-0.00982093,-0.0558481 -0.00328397,-0.117262 0.0257554,-0.181135 -0.0231943,-0.0913419 -0.00635107,-0.198845 0.0751285,-0.316924 0.0125885,-0.018258 0.020468,-0.0280893 0.0303716,-0.0368466 -0.311285,-0.101328 -0.502117,0.377058 -0.131256,0.534905zm0.0395109 -0.139269c-0.0359275,0.320332 0.286191,0.497831 0.517297,0.254941 -0.167865,0.0489704 -0.437016,-0.0584505 -0.517297,-0.254941zm0.650463 0.121806l-0.000123923 0.00047504 0.000588636 -0.00215833c-0.00013425,0.000578309 -0.000330462,0.00111531 -0.000464713,0.00168329zm-0.438007 0.429529l-0.00144577 0.000423405 0.00366607 -0.000826156 -0.00222029 0.000402751z"/>
    </g>
</svg>
